<?xml version="1.0" encoding="iso-8859-1"?>
<!-- Generator: Adobe Illustrator 18.0.0, SVG Export Plug-In . SVG Version: 6.00 Build 0)  -->
<!DOCTYPE svg PUBLIC "-//W3C//DTD SVG 1.1//EN" "http://www.w3.org/Graphics/SVG/1.1/DTD/svg11.dtd">
<svg version="1.1" id="FullLogo" xmlns="http://www.w3.org/2000/svg" xmlns:xlink="http://www.w3.org/1999/xlink" x="0px" y="0px"
	 viewBox="0 0 137 136.25" style="enable-background:new 0 0 137 136.25;" xml:space="preserve">
<path style="fill:#FFFFFF;" d="M135.66,68c0,37.117-30.088,67.205-67.205,67.205S1.25,105.117,1.25,68
	c0-37.117,30.088-67.205,67.205-67.205S135.66,30.883,135.66,68z"/>
<path style="fill:#AC2329;" d="M135.66,67.999c0,37.118-30.088,67.206-67.205,67.206c-37.117,0-67.205-30.088-67.205-67.206
	c0-37.116,30.088-67.205,67.205-67.205C105.572,0.795,135.66,30.883,135.66,67.999z M68.455,6.273
	c-34.09,0-61.726,27.636-61.726,61.726c0,34.092,27.636,61.727,61.726,61.727c34.09,0,61.726-27.635,61.726-61.727
	C130.181,33.909,102.545,6.273,68.455,6.273z"/>
<g>
	<path style="fill:#AC2329;" d="M110.487,104.134H88.391L65.777,72.156h-4.605V91.82c0,3.794,0.234,6.183,0.698,7.165
		c0.467,0.984,1.286,1.768,2.458,2.355c1.173,0.588,3.364,0.88,6.571,0.88v1.913H34.989v-1.913c3.243,0,5.441-0.303,6.598-0.907
		c1.155-0.602,1.966-1.386,2.432-2.353c0.466-0.967,0.698-3.347,0.698-7.141V50.474c0-3.794-0.232-6.184-0.698-7.167
		c-0.466-0.983-1.286-1.767-2.458-2.354c-0.47-0.234-1.109-0.419-1.902-0.561h-19.99C15.045,48.543,12.392,57.959,12.392,68
		c0,30.961,25.099,56.06,56.06,56.06c17.19,0,32.564-7.744,42.847-19.926H110.487L110.487,104.134z"/>
	<path style="fill:#AC2329;" d="M66.708,37.745h-5.536v30.738h2.95c4.795,0,8.383-0.439,10.763-1.319
		c2.38-0.88,4.251-2.466,5.615-4.762c1.362-2.294,2.044-5.287,2.044-8.978c0-5.348-1.251-9.298-3.752-11.851
		C76.29,39.02,72.263,37.745,66.708,37.745z"/>
	<path style="fill:#AC2329;" d="M49.71,33.967h17.878c8.488,0,14.697,0.586,18.63,1.759c3.933,1.174,7.142,3.336,9.623,6.495
		c2.484,3.156,3.727,6.856,3.727,11.099c0,5.174-1.863,9.453-5.589,12.833c-2.38,2.14-5.71,3.745-9.987,4.812l16.869,23.754
		c0.955,1.326,1.78,2.423,2.496,3.317h12.42c5.522-8.684,8.735-18.982,8.735-30.036c0-30.96-25.1-56.06-56.06-56.06
		c-18.158,0-34.292,8.641-44.537,22.027h11.073H49.71z"/>
	<path style="fill:#FFFFFF;" d="M103.356,98.033c-0.716-0.895-1.542-1.991-2.496-3.317L83.992,70.963
		c4.277-1.067,7.606-2.673,9.987-4.812c3.725-3.379,5.588-7.658,5.588-12.833c0-4.242-1.242-7.942-3.727-11.098
		c-2.482-3.158-5.691-5.32-9.623-6.494c-3.933-1.173-10.142-1.759-18.629-1.759H49.711H34.99H23.918
		c-1.558,2.036-2.976,4.183-4.248,6.424h19.989c0.793,0.141,1.433,0.327,1.902,0.561c1.172,0.587,1.992,1.371,2.458,2.354
		c0.466,0.983,0.698,3.373,0.698,7.167v41.345c0,3.794-0.232,6.174-0.698,7.14c-0.466,0.967-1.277,1.753-2.432,2.354
		c-1.156,0.604-3.355,0.907-6.597,0.907v1.913H70.9v-1.913c-3.207,0-5.398-0.293-6.571-0.88c-1.173-0.588-1.992-1.371-2.458-2.355
		c-0.463-0.984-0.698-3.371-0.698-7.165V72.154h4.605l22.612,31.977h22.096l0,0h0.812c1.626-1.925,3.12-3.964,4.478-6.098H103.356z
		 M80.499,62.4c-1.364,2.294-3.235,3.88-5.615,4.76c-2.379,0.88-5.967,1.32-10.762,1.32h-2.949V37.744h5.536
		c5.555,0,9.582,1.275,12.083,3.828c2.5,2.553,3.751,6.503,3.751,11.851C82.542,57.114,81.861,60.107,80.499,62.4z"/>
</g>
</svg>
