<?xml version="1.0" encoding="UTF-8" standalone="no"?>
<svg width="143px" height="144px" viewBox="0 0 143 144" version="1.1" xmlns="http://www.w3.org/2000/svg" xmlns:xlink="http://www.w3.org/1999/xlink">
    <!-- Generator: Sketch 39.1 (31720) - http://www.bohemiancoding.com/sketch -->
    <title>RMailFinalFile_circle_only</title>
    <desc>Created with Sketch.</desc>
    <defs>
        <filter x="-50%" y="-50%" width="200%" height="200%" filterUnits="objectBoundingBox" id="filter-1">
            <feOffset dx="0" dy="2" in="SourceAlpha" result="shadowOffsetOuter1"></feOffset>
            <feGaussianBlur stdDeviation="2" in="shadowOffsetOuter1" result="shadowBlurOuter1"></feGaussianBlur>
            <feColorMatrix values="0 0 0 0 0   0 0 0 0 0   0 0 0 0 0  0 0 0 0.5 0" type="matrix" in="shadowBlurOuter1" result="shadowMatrixOuter1"></feColorMatrix>
            <feMerge>
                <feMergeNode in="shadowMatrixOuter1"></feMergeNode>
                <feMergeNode in="SourceGraphic"></feMergeNode>
            </feMerge>
        </filter>
    </defs>
    <g id="Page-1" stroke="none" stroke-width="1" fill="none" fill-rule="evenodd">
        <g id="RMailFinalFile_circle_only" filter="url(#filter-1)" transform="translate(4.000000, 2.000000)">
            <path d="M134.66,68 C134.66,105.117 104.572,135.205 67.455,135.205 C30.338,135.205 0.25,105.117 0.25,68 C0.25,30.883 30.338,0.795 67.455,0.795 C104.572,0.795 134.66,30.883 134.66,68 L134.66,68 Z" id="Shape" fill="#090808"></path>
            <path d="M134.66,67.999 C134.66,105.117 104.572,135.205 67.455,135.205 C30.338,135.205 0.25,105.117 0.25,67.999 C0.25,30.883 30.338,0.794 67.455,0.794 C104.572,0.795 134.66,30.883 134.66,67.999 L134.66,67.999 Z M67.455,6.273 C33.365,6.273 5.729,33.909 5.729,67.999 C5.729,102.091 33.365,129.726 67.455,129.726 C101.545,129.726 129.181,102.091 129.181,67.999 C129.181,33.909 101.545,6.273 67.455,6.273 L67.455,6.273 Z" id="Shape" fill="#F9F9F9"></path>
            <g id="Group" transform="translate(11.000000, 11.000000)">
                <path d="M98.487,93.134 L76.391,93.134 L53.777,61.156 L49.172,61.156 L49.172,80.82 C49.172,84.614 49.406,87.003 49.87,87.985 C50.337,88.969 51.156,89.753 52.328,90.34 C53.501,90.928 55.692,91.22 58.899,91.22 L58.899,93.133 L22.989,93.133 L22.989,91.22 C26.232,91.22 28.43,90.917 29.587,90.313 C30.742,89.711 31.553,88.927 32.019,87.96 C32.485,86.993 32.717,84.613 32.717,80.819 L32.717,39.474 C32.717,35.68 32.485,33.29 32.019,32.307 C31.553,31.324 30.733,30.54 29.561,29.953 C29.091,29.719 28.452,29.534 27.659,29.392 L7.669,29.392 C3.045,37.543 0.392,46.959 0.392,57 C0.392,87.961 25.491,113.06 56.452,113.06 C73.642,113.06 89.016,105.316 99.299,93.134 L98.487,93.134 L98.487,93.134 L98.487,93.134 Z" id="Shape" fill="#F9F9F9"></path>
                <path d="M54.708,26.745 L49.172,26.745 L49.172,57.483 L52.122,57.483 C56.917,57.483 60.505,57.044 62.885,56.164 C65.265,55.284 67.136,53.698 68.5,51.402 C69.862,49.108 70.544,46.115 70.544,42.424 C70.544,37.076 69.293,33.126 66.792,30.573 C64.29,28.02 60.263,26.745 54.708,26.745 L54.708,26.745 Z" id="Shape" fill="#F9F9F9"></path>
                <path d="M37.71,22.967 L55.588,22.967 C64.076,22.967 70.285,23.553 74.218,24.726 C78.151,25.9 81.36,28.062 83.841,31.221 C86.325,34.377 87.568,38.077 87.568,42.32 C87.568,47.494 85.705,51.773 81.979,55.153 C79.599,57.293 76.269,58.898 71.992,59.965 L88.861,83.719 C89.816,85.045 90.641,86.142 91.357,87.036 L103.777,87.036 C109.299,78.352 112.512,68.054 112.512,57 C112.512,26.04 87.412,0.94 56.452,0.94 C38.294,0.94 22.16,9.581 11.915,22.967 L22.988,22.967 L37.71,22.967 L37.71,22.967 Z" id="Shape" fill="#FAFAFA"></path>
                <path d="M91.356,87.033 C90.64,86.138 89.814,85.042 88.86,83.716 L71.992,59.963 C76.269,58.896 79.598,57.29 81.979,55.151 C85.704,51.772 87.567,47.493 87.567,42.318 C87.567,38.076 86.325,34.376 83.84,31.22 C81.358,28.062 78.149,25.9 74.217,24.726 C70.284,23.553 64.075,22.967 55.588,22.967 L37.711,22.967 L22.99,22.967 L11.918,22.967 C10.36,25.003 8.942,27.15 7.67,29.391 L27.659,29.391 C28.452,29.532 29.092,29.718 29.561,29.952 C30.733,30.539 31.553,31.323 32.019,32.306 C32.485,33.289 32.717,35.679 32.717,39.473 L32.717,80.818 C32.717,84.612 32.485,86.992 32.019,87.958 C31.553,88.925 30.742,89.711 29.587,90.312 C28.431,90.916 26.232,91.219 22.99,91.219 L22.99,93.132 L58.9,93.132 L58.9,91.219 C55.693,91.219 53.502,90.926 52.329,90.339 C51.156,89.751 50.337,88.968 49.871,87.984 C49.408,87 49.173,84.613 49.173,80.819 L49.173,61.154 L53.778,61.154 L76.39,93.131 L98.486,93.131 L98.486,93.131 L99.298,93.131 C100.924,91.206 102.418,89.167 103.776,87.033 L91.356,87.033 L91.356,87.033 Z M68.499,51.4 C67.135,53.694 65.264,55.28 62.884,56.16 C60.505,57.04 56.917,57.48 52.122,57.48 L49.173,57.48 L49.173,26.744 L54.709,26.744 C60.264,26.744 64.291,28.019 66.792,30.572 C69.292,33.125 70.543,37.075 70.543,42.423 C70.542,46.114 69.861,49.107 68.499,51.4 L68.499,51.4 Z" id="Shape" fill="#080808"></path>
            </g>
        </g>
    </g>
</svg>